<svg width="28" height="28" viewBox="0 0 28 28" fill="none" xmlns="http://www.w3.org/2000/svg">
<path fill-rule="evenodd" clip-rule="evenodd" d="M15.7605 3.5C15.9346 3.50262 16.1061 3.556 16.2522 3.65838C16.4859 3.822 16.625 4.08975 16.625 4.375V23.625C16.625 24.1045 16.2391 24.4939 15.7614 24.5H15.75H6.125C5.642 24.5 5.25 24.108 5.25 23.625C5.25 23.625 5.25 12.8039 5.25 9.10087C5.25 7.99662 5.94037 7.01137 6.97812 6.63337C9.53312 5.705 15.4508 3.5525 15.4508 3.5525C15.5435 3.51925 15.6389 3.50175 15.7343 3.5H15.7474H15.7605ZM18.375 10.6733L21.1592 11.8659C22.1244 12.2797 22.75 13.2291 22.75 14.2791V23.625C22.75 24.108 22.358 24.5 21.875 24.5H18.2254C18.3225 24.2261 18.375 23.9321 18.375 23.625V10.6733ZM12.2614 18.375C12.7391 18.3689 13.125 17.9795 13.125 17.5C13.125 17.017 12.733 16.625 12.25 16.625H9.625C9.142 16.625 8.75 17.017 8.75 17.5C8.75 17.983 9.142 18.375 9.625 18.375H12.25H12.2614ZM12.2614 14.875C12.7391 14.8689 13.125 14.4795 13.125 14C13.125 13.517 12.733 13.125 12.25 13.125H9.625C9.142 13.125 8.75 13.517 8.75 14C8.75 14.483 9.142 14.875 9.625 14.875H12.25H12.2614ZM12.2614 11.375C12.7391 11.3689 13.125 10.9795 13.125 10.5C13.125 10.017 12.733 9.625 12.25 9.625H9.625C9.142 9.625 8.75 10.017 8.75 10.5C8.75 10.983 9.142 11.375 9.625 11.375H12.25H12.2614Z" fill="white"/>
</svg>
