<svg width="17" height="17" viewBox="0 0 17 17" fill="none" xmlns="http://www.w3.org/2000/svg">
<path d="M14.8056 4.09524L12.8923 2.18191C12.5395 1.84216 12.0688 1.65234 11.579 1.65234C11.0892 1.65234 10.6184 1.84216 10.2656 2.18191L8.8523 3.61524L2.58563 9.85524C2.53761 9.90692 2.50124 9.96831 2.47896 10.0352L1.10563 14.1686C1.06202 14.2885 1.03728 14.4144 1.0323 14.5419C1.0323 14.5419 1.0323 14.5419 1.0323 14.5819C1.02536 14.8152 1.08304 15.046 1.19896 15.2486C1.19896 15.2486 1.23896 15.2952 1.2523 15.3219C1.3003 15.4045 1.35853 15.4806 1.42563 15.5486C1.5499 15.6754 1.69824 15.776 1.86195 15.8447C2.02566 15.9134 2.20143 15.9487 2.37896 15.9486C2.52641 15.9476 2.67273 15.9228 2.8123 15.8752L6.94563 14.5019C7.01289 14.4771 7.0742 14.4385 7.12563 14.3886L13.3723 8.13524L14.8056 6.69524C14.9824 6.52168 15.122 6.31398 15.216 6.08476C15.31 5.85554 15.3564 5.60961 15.3523 5.36191C15.3406 4.88492 15.1446 4.43099 14.8056 4.09524ZM6.77896 13.3352L5.2123 11.7752L3.64563 10.2086L9.17896 4.68191L12.3123 7.80857L6.77896 13.3352ZM2.48563 14.9486H2.35896C2.29691 14.9442 2.23712 14.9235 2.18563 14.8886C2.12263 14.8265 2.08466 14.7435 2.07896 14.6552C2.07304 14.6132 2.07304 14.5706 2.07896 14.5286L2.18563 14.0086L2.97896 14.8019L2.48563 14.9486ZM4.03896 14.4352L2.5523 12.9486L3.15896 11.1352L4.4923 12.4686L5.82563 13.8019L4.03896 14.4352ZM14.099 6.01524L13.019 7.10191L9.88563 3.96857L10.9723 2.88857C11.1335 2.72818 11.3516 2.63813 11.579 2.63813C11.8063 2.63813 12.0245 2.72818 12.1856 2.88857L14.099 4.80191C14.2594 4.96307 14.3494 5.1812 14.3494 5.40857C14.3494 5.63595 14.2594 5.85408 14.099 6.01524Z" fill="#397FE8"/>
</svg>
