<svg width="24" height="24" viewBox="0 0 24 24" fill="current" xmlns="http://www.w3.org/2000/svg">
<path d="M21.9304 4.93998L19.0604 2.06998C18.5312 1.56035 17.8251 1.27563 17.0904 1.27563C16.3557 1.27563 15.6496 1.56035 15.1204 2.06998L13.0004 4.21998L3.60037 13.58C3.52835 13.6575 3.47379 13.7496 3.44037 13.85L1.38037 20.05C1.31496 20.2298 1.27785 20.4187 1.27037 20.61C1.27037 20.61 1.27037 20.61 1.27037 20.67C1.25997 21.02 1.34648 21.3661 1.52037 21.67C1.52037 21.67 1.58037 21.74 1.60037 21.78C1.67237 21.9038 1.75973 22.0181 1.86037 22.12C2.04678 22.3102 2.26929 22.4612 2.51485 22.5642C2.76041 22.6673 3.02407 22.7202 3.29037 22.72C3.51154 22.7184 3.73101 22.6813 3.94037 22.61L10.1404 20.55C10.2413 20.5128 10.3332 20.4549 10.4104 20.38L19.7804 11L21.9304 8.83998C22.1955 8.57964 22.405 8.26808 22.5459 7.92426C22.6869 7.58044 22.7565 7.21153 22.7504 6.83998C22.7328 6.1245 22.4389 5.4436 21.9304 4.93998ZM9.89037 18.8L7.54037 16.46L5.19037 14.11L13.4904 5.81998L18.1904 10.51L9.89037 18.8ZM3.45037 21.22H3.26037C3.16729 21.2134 3.0776 21.1823 3.00037 21.13C2.90586 21.0369 2.84891 20.9123 2.84037 20.78C2.83148 20.717 2.83148 20.653 2.84037 20.59L3.00037 19.81L4.19037 21L3.45037 21.22ZM5.78037 20.45L3.55037 18.22L4.46037 15.5L6.46037 17.5L8.46037 19.5L5.78037 20.45ZM20.8704 7.81998L19.2504 9.44998L14.5504 4.74998L16.1804 3.12998C16.4221 2.88938 16.7493 2.75431 17.0904 2.75431C17.4314 2.75431 17.7586 2.88938 18.0004 3.12998L20.8704 5.99998C21.111 6.24172 21.246 6.56891 21.246 6.90998C21.246 7.25105 21.111 7.57824 20.8704 7.81998Z"/>
</svg>
