<svg width="20" height="20" viewBox="0 0 20 20" fill="none" xmlns="http://www.w3.org/2000/svg">
<path d="M10 10C12.4162 10 14.375 8.04125 14.375 5.625C14.375 3.20875 12.4162 1.25 10 1.25C7.58375 1.25 5.625 3.20875 5.625 5.625C5.625 8.04125 7.58375 10 10 10Z" fill="white"/>
<path d="M8.8584 13.5994L9.99965 14.7413L11.1415 13.5994L10.2015 11.25H9.79777L8.8584 13.5994Z" fill="white"/>
<path d="M18.6065 16.5462C18.3463 15.1227 17.7365 13.7862 16.8317 12.6568C15.927 11.5274 14.7558 10.6406 13.4233 10.0762C12.8413 10.5253 12.1769 10.8559 11.4677 11.0493L12.3021 13.1355C12.393 13.3626 12.4153 13.6114 12.3662 13.851C12.3171 14.0907 12.1987 14.3106 12.0258 14.4837L10.8833 15.6255C10.6489 15.8599 10.331 15.9915 9.99958 15.9915C9.66812 15.9915 9.35024 15.8599 9.11583 15.6255L7.97395 14.4837C7.80107 14.3108 7.68269 14.0909 7.63348 13.8514C7.58426 13.6119 7.60638 13.3632 7.69708 13.1362L8.53145 11.0493C7.82222 10.8559 7.15781 10.5253 6.57583 10.0762C5.2434 10.6406 4.07215 11.5274 3.16742 12.6568C2.26268 13.7862 1.65283 15.1227 1.3927 16.5462C1.34351 16.8146 1.35413 17.0905 1.42381 17.3543C1.49349 17.6181 1.62052 17.8633 1.79583 18.0724C1.97229 18.2847 2.19336 18.4556 2.44332 18.5728C2.69328 18.69 2.966 18.7507 3.24208 18.7505H16.7571C17.0332 18.7507 17.3059 18.69 17.5558 18.5728C17.8058 18.4556 18.0269 18.2847 18.2033 18.0724C18.3786 17.8633 18.5057 17.6181 18.5753 17.3543C18.645 17.0905 18.6556 16.8146 18.6065 16.5462Z" fill="white"/>
</svg>
