<svg width="20" height="20" viewBox="0 0 20 20" fill="none" xmlns="http://www.w3.org/2000/svg">
<g clip-path="url(#clip0_1838_203993)">
<path d="M9.85722 9.63406C11.1808 9.63406 12.3268 9.15936 13.2633 8.22278C14.1997 7.28635 14.6744 6.14057 14.6744 4.81688C14.6744 3.49364 14.1997 2.34771 13.2631 1.41097C12.3265 0.474699 11.1806 0 9.85722 0C8.53353 0 7.38775 0.474699 6.45132 1.41113C5.51489 2.34756 5.04004 3.49349 5.04004 4.81688C5.04004 6.14057 5.51489 7.2865 6.45147 8.22293C7.38805 9.1592 8.53398 9.63406 9.85722 9.63406Z" fill="white"/>
<path d="M18.2862 15.3793C18.2592 14.9896 18.2046 14.5645 18.1242 14.1156C18.043 13.6633 17.9385 13.2358 17.8134 12.845C17.6841 12.4411 17.5083 12.0423 17.291 11.66C17.0655 11.2633 16.8006 10.9178 16.5034 10.6336C16.1926 10.3362 15.812 10.0971 15.372 9.92267C14.9334 9.74918 14.4474 9.66129 13.9276 9.66129C13.7234 9.66129 13.526 9.74506 13.1446 9.99332C12.91 10.1464 12.6355 10.3234 12.3291 10.5191C12.0671 10.6861 11.7121 10.8425 11.2738 10.9841C10.8461 11.1225 10.4118 11.1927 9.98318 11.1927C9.55456 11.1927 9.12045 11.1225 8.69229 10.9841C8.25437 10.8426 7.89945 10.6862 7.63776 10.5193C7.33427 10.3253 7.05961 10.1483 6.82142 9.99316C6.44056 9.7449 6.24296 9.66113 6.0388 9.66113C5.51878 9.66113 5.03295 9.74918 4.59456 9.92282C4.15481 10.0969 3.7741 10.336 3.46298 10.6337C3.16589 10.9181 2.90084 11.2635 2.67562 11.66C2.45849 12.0423 2.28271 12.441 2.15332 12.8452C2.02835 13.2359 1.92383 13.6633 1.84265 14.1156C1.76224 14.5639 1.70761 14.9892 1.6806 15.3798C1.65405 15.7625 1.64062 16.1597 1.64062 16.5608C1.64062 17.6048 1.9725 18.45 2.62695 19.0733C3.27331 19.6884 4.12856 20.0004 5.1686 20.0004H14.7987C15.8387 20.0004 16.6937 19.6886 17.3402 19.0733C17.9948 18.4505 18.3267 17.6051 18.3267 16.5607C18.3265 16.1577 18.3129 15.7602 18.2862 15.3793Z" fill="white"/>
</g>
<defs>
<clipPath id="clip0_1838_203993">
<rect width="19.9999" height="20" fill="white"/>
</clipPath>
</defs>
</svg>
